<svg width="158" height="40" viewBox="0 0 158 40" fill="none" xmlns="http://www.w3.org/2000/svg">
<path d="M4.62656 13.1869L0.858887 16.9545L16.7369 32.0252L37.4591 1.88384L35.3062 0L16.1987 20.7222L4.62656 13.1869Z" fill="#1C3A6A"/>
<path d="M28.8473 17.7619L25.0796 23.4134L34.2297 32.2943L54.6828 2.42208L52.5298 0.26912L33.9606 20.9913L28.8473 17.7619Z" fill="#1C3A6A"/>
<path d="M157.699 0.175293H141.369V21.5296H157.699V18.479H145.317V12.0189H155.904V9.14769H145.317V3.22591H157.699V0.175293Z" fill="#1C3A6A"/>
<path d="M122.527 3.22591V0.175293H140.472V3.22591H133.474V21.5296H129.526V3.22591H122.527Z" fill="#1C3A6A"/>
<path d="M121.809 0.175293H117.861V21.5296H121.809V0.175293Z" fill="#1C3A6A"/>
<path d="M101.352 0.175293H97.4041V21.5296H101.352V12.0189H111.401V21.5296H115.349V0.175293H111.401V9.32714H101.352V0.175293Z" fill="#1C3A6A"/>
<path d="M68.6925 0.175293H64.3857L69.4103 21.5296H72.102L78.921 6.45597L86.2784 21.5296H88.4318L93.6358 0.175293H89.329L86.2784 12.0189L80.3566 0.175293H77.306L71.7431 12.1983L68.6925 0.175293Z" fill="#1C3A6A"/>
<path d="M93.1744 39.6699C93.099 39.6699 93.0351 39.6598 92.9829 39.6394C92.9335 39.6191 92.8929 39.593 92.861 39.5611C92.829 39.5262 92.8058 39.4885 92.7913 39.4479C92.7797 39.4072 92.7739 39.3652 92.7739 39.3216C92.7739 39.281 92.7782 39.2375 92.7869 39.191C92.7956 39.1417 92.8044 39.101 92.8131 39.0691L93.1744 37.6106H92.8087L92.8784 37.3363H93.0307C93.083 37.3363 93.128 37.332 93.1657 37.3233C93.2063 37.3146 93.2412 37.3015 93.2702 37.2841C93.3021 37.2667 93.3312 37.2449 93.3573 37.2188C93.3834 37.1898 93.411 37.1549 93.44 37.1143L93.7099 36.7138H94.0277L93.871 37.3363H94.363L94.2933 37.6106H93.8057L93.3921 39.2563L93.4792 39.3042L93.9799 38.8297L94.1235 38.9429L93.7578 39.339C93.694 39.4087 93.6359 39.4653 93.5837 39.5088C93.5314 39.5524 93.4821 39.5857 93.4356 39.609C93.3921 39.6322 93.3486 39.6482 93.305 39.6569C93.2615 39.6656 93.218 39.6699 93.1744 39.6699ZM95.2414 37.7412H94.8888L94.9541 37.48L95.8945 37.2841L95.716 38.0025L95.7682 38.0199C95.8669 37.7703 95.9685 37.586 96.073 37.467C96.1803 37.345 96.3168 37.2841 96.4822 37.2841C96.6128 37.2841 96.7115 37.3175 96.7783 37.3842C96.8479 37.451 96.8827 37.5395 96.8827 37.6498C96.8827 37.702 96.874 37.7514 96.8566 37.7978C96.8421 37.8443 96.8189 37.8864 96.787 37.9241C96.755 37.9618 96.7159 37.9923 96.6694 38.0155C96.6259 38.0358 96.5765 38.046 96.5214 38.046C96.4401 38.046 96.3719 38.0242 96.3168 37.9807C96.2616 37.9342 96.234 37.8733 96.234 37.7978C96.234 37.7543 96.2428 37.7093 96.2602 37.6629C96.2805 37.6164 96.3052 37.5787 96.3342 37.5497L96.3037 37.5192C96.2486 37.5337 96.1833 37.5932 96.1078 37.6977C96.0352 37.8022 95.9569 37.9415 95.8727 38.1157C95.7972 38.2695 95.729 38.4364 95.6681 38.6163C95.6071 38.7963 95.552 38.9878 95.5026 39.191L95.3981 39.6177H94.7712L95.2414 37.7412ZM97.818 39.6699C97.6352 39.6699 97.5045 39.609 97.4262 39.4871C97.3507 39.3652 97.313 39.1983 97.313 38.9864C97.313 38.8645 97.3246 38.7382 97.3478 38.6076C97.371 38.4741 97.4059 38.3449 97.4523 38.2201C97.4987 38.0924 97.5553 37.972 97.6221 37.8588C97.6888 37.7456 97.7643 37.6469 97.8485 37.5627C97.9327 37.4757 98.0255 37.4074 98.1271 37.3581C98.2316 37.3088 98.3434 37.2841 98.4624 37.2841C98.5901 37.2841 98.6989 37.3189 98.7889 37.3886C98.8818 37.4553 98.9427 37.5714 98.9717 37.7369H99.024L99.307 37.3363H99.6161L99.1285 39.2868L99.2068 39.3216L99.5987 38.8253L99.7554 38.9167L99.5116 39.2868C99.4216 39.4232 99.3316 39.5219 99.2417 39.5828C99.1546 39.6409 99.0646 39.6699 98.9717 39.6699C98.8992 39.6699 98.8382 39.6598 98.7889 39.6394C98.7424 39.6191 98.7047 39.593 98.6757 39.5611C98.6496 39.5292 98.6307 39.4929 98.6191 39.4522C98.6075 39.4087 98.6017 39.3666 98.6017 39.326C98.6017 39.2824 98.606 39.2375 98.6147 39.191C98.6234 39.1417 98.6321 39.101 98.6409 39.0691L98.6583 38.9995L98.606 38.9907C98.5654 39.0807 98.519 39.1678 98.4667 39.252C98.4174 39.3332 98.3608 39.4058 98.2969 39.4697C98.236 39.5306 98.1649 39.5799 98.0836 39.6177C98.0052 39.6525 97.9167 39.6699 97.818 39.6699ZM98.0923 39.2694C98.1619 39.2694 98.2331 39.2316 98.3056 39.1562C98.3811 39.0807 98.4493 38.9878 98.5102 38.8775C98.5741 38.7673 98.6292 38.6497 98.6757 38.5249C98.725 38.4001 98.7613 38.2883 98.7845 38.1897L98.815 38.0634C98.8469 37.9241 98.8513 37.8138 98.8281 37.7325C98.8048 37.6513 98.7424 37.6106 98.6409 37.6106C98.5393 37.6106 98.4377 37.6672 98.3361 37.7804C98.2374 37.8936 98.1518 38.0794 98.0792 38.3377C98.0473 38.448 98.0197 38.5713 97.9965 38.7078C97.9733 38.8413 97.9617 38.9545 97.9617 39.0473C97.9617 39.1141 97.9704 39.1678 97.9878 39.2084C98.0081 39.2491 98.0429 39.2694 98.0923 39.2694ZM100.873 39.6699C100.691 39.6699 100.56 39.609 100.482 39.4871C100.406 39.3652 100.368 39.1983 100.368 38.9864C100.368 38.8645 100.38 38.7382 100.403 38.6076C100.429 38.4741 100.464 38.3449 100.508 38.2201C100.554 38.0924 100.611 37.972 100.677 37.8588C100.744 37.7456 100.82 37.6469 100.904 37.5627C100.988 37.4757 101.079 37.4074 101.178 37.3581C101.28 37.3088 101.389 37.2841 101.505 37.2841C101.63 37.2841 101.728 37.3131 101.801 37.3712C101.873 37.4292 101.923 37.5134 101.949 37.6237H102.001L102.184 36.7617H101.831L101.897 36.5048L102.928 36.3089L102.184 39.2868L102.262 39.3216L102.654 38.8253L102.811 38.9167L102.567 39.2868C102.477 39.4232 102.387 39.5219 102.297 39.5828C102.21 39.6409 102.12 39.6699 102.027 39.6699C101.957 39.6699 101.898 39.6598 101.849 39.6394C101.802 39.6191 101.764 39.593 101.735 39.5611C101.706 39.5292 101.686 39.4929 101.674 39.4522C101.663 39.4087 101.657 39.3666 101.657 39.326C101.657 39.2824 101.661 39.2375 101.67 39.191C101.679 39.1417 101.688 39.101 101.696 39.0691L101.714 38.9995L101.661 38.9907C101.621 39.0807 101.574 39.1678 101.522 39.252C101.473 39.3332 101.416 39.4058 101.352 39.4697C101.291 39.5306 101.22 39.5799 101.139 39.6177C101.061 39.6525 100.972 39.6699 100.873 39.6699ZM101.148 39.2694C101.217 39.2694 101.288 39.2316 101.361 39.1562C101.436 39.0807 101.505 38.9878 101.566 38.8775C101.63 38.7644 101.685 38.6454 101.731 38.5205C101.78 38.3957 101.817 38.2854 101.84 38.1897L101.87 38.0634C101.902 37.9241 101.907 37.8138 101.883 37.7325C101.86 37.6513 101.798 37.6106 101.696 37.6106C101.595 37.6106 101.493 37.6672 101.392 37.7804C101.293 37.8936 101.207 38.0794 101.135 38.3377C101.103 38.448 101.075 38.5713 101.052 38.7078C101.029 38.8413 101.017 38.9545 101.017 39.0473C101.017 39.1141 101.026 39.1678 101.043 39.2084C101.064 39.2491 101.098 39.2694 101.148 39.2694ZM104.103 39.6699C103.868 39.6699 103.695 39.6032 103.585 39.4697C103.475 39.3332 103.42 39.1446 103.42 38.9037C103.42 38.7324 103.444 38.5525 103.494 38.3638C103.546 38.1722 103.624 37.9967 103.729 37.837C103.833 37.6774 103.967 37.5453 104.129 37.4408C104.295 37.3363 104.491 37.2841 104.717 37.2841C104.813 37.2841 104.901 37.2928 104.983 37.3102C105.067 37.3276 105.138 37.3567 105.196 37.3973C105.257 37.435 105.305 37.4844 105.34 37.5453C105.375 37.6034 105.392 37.6745 105.392 37.7586C105.392 37.8254 105.375 37.8994 105.34 37.9807C105.305 38.0591 105.241 38.1345 105.148 38.2071C105.055 38.2767 104.928 38.3391 104.765 38.3943C104.603 38.4465 104.392 38.4799 104.134 38.4944C104.111 38.596 104.095 38.6874 104.086 38.7687C104.077 38.85 104.073 38.9211 104.073 38.982C104.073 39.1068 104.096 39.1954 104.142 39.2476C104.189 39.2999 104.254 39.326 104.338 39.326C104.472 39.326 104.594 39.2723 104.704 39.1649C104.814 39.0546 104.919 38.9008 105.018 38.7034L105.187 38.7774C105.121 38.9167 105.052 39.0415 104.983 39.1518C104.913 39.2621 104.835 39.3565 104.748 39.4348C104.663 39.5103 104.568 39.5683 104.46 39.609C104.356 39.6496 104.237 39.6699 104.103 39.6699ZM104.177 38.3159C104.314 38.2956 104.425 38.2666 104.513 38.2288C104.603 38.1882 104.674 38.1418 104.726 38.0895C104.778 38.0344 104.814 37.9749 104.835 37.911C104.858 37.8472 104.87 37.7804 104.87 37.7108C104.87 37.6498 104.854 37.6019 104.822 37.5671C104.793 37.5323 104.748 37.5148 104.687 37.5148C104.626 37.5148 104.572 37.5294 104.526 37.5584C104.482 37.5845 104.441 37.6295 104.404 37.6933C104.366 37.7543 104.328 37.8356 104.29 37.9371C104.256 38.0387 104.218 38.165 104.177 38.3159ZM107.666 37.5932H107.514L107.575 37.3363H108.624L108.563 37.5932H108.324L108.276 39.0125H108.324L109.186 37.3363H109.647L109.626 39.0125H109.674L110.374 37.5932H110.135L110.196 37.3363H110.923L110.862 37.5932H110.71L109.573 39.6177H109.081L109.09 38.1374H109.047L108.246 39.6177H107.727L107.666 37.5932ZM111.785 39.6699C111.707 39.6699 111.641 39.6583 111.589 39.6351C111.537 39.6148 111.493 39.5887 111.459 39.5567C111.427 39.5219 111.403 39.4842 111.389 39.4435C111.377 39.4 111.371 39.3565 111.371 39.3129C111.371 39.2781 111.376 39.2375 111.384 39.191C111.393 39.1417 111.402 39.101 111.411 39.0691L111.741 37.7412H111.389L111.454 37.48L112.486 37.2841L111.985 39.2868L112.064 39.3216L112.456 38.8253L112.612 38.9167L112.368 39.2868C112.267 39.4406 112.165 39.5437 112.064 39.5959C111.962 39.6452 111.869 39.6699 111.785 39.6699ZM112.364 36.2827C112.471 36.2827 112.553 36.3103 112.608 36.3655C112.666 36.4206 112.695 36.4859 112.695 36.5614C112.695 36.602 112.691 36.6397 112.682 36.6746C112.659 36.7675 112.611 36.84 112.538 36.8923C112.466 36.9445 112.379 36.9706 112.277 36.9706C112.17 36.9706 112.087 36.9431 112.029 36.8879C111.974 36.8328 111.946 36.7675 111.946 36.692C111.946 36.6514 111.95 36.6136 111.959 36.5788C111.982 36.4859 112.03 36.4134 112.103 36.3611C112.175 36.3089 112.262 36.2827 112.364 36.2827ZM113.74 39.6699C113.665 39.6699 113.601 39.6598 113.549 39.6394C113.499 39.6191 113.459 39.593 113.427 39.5611C113.395 39.5262 113.372 39.4885 113.357 39.4479C113.345 39.4072 113.34 39.3652 113.34 39.3216C113.34 39.281 113.344 39.2375 113.353 39.191C113.361 39.1417 113.37 39.101 113.379 39.0691L113.74 37.6106H113.374L113.444 37.3363H113.597C113.649 37.3363 113.694 37.332 113.731 37.3233C113.772 37.3146 113.807 37.3015 113.836 37.2841C113.868 37.2667 113.897 37.2449 113.923 37.2188C113.949 37.1898 113.977 37.1549 114.006 37.1143L114.276 36.7138H114.594L114.437 37.3363H114.929L114.859 37.6106H114.371L113.958 39.2563L114.045 39.3042L114.546 38.8297L114.689 38.9429L114.324 39.339C114.26 39.4087 114.202 39.4653 114.149 39.5088C114.097 39.5524 114.048 39.5857 114.001 39.609C113.958 39.6322 113.914 39.6482 113.871 39.6569C113.827 39.6656 113.784 39.6699 113.74 39.6699ZM116.996 39.6699C116.917 39.6699 116.852 39.6583 116.8 39.6351C116.748 39.6148 116.705 39.5887 116.674 39.5567C116.642 39.5219 116.618 39.4842 116.604 39.4435C116.592 39.4 116.586 39.3579 116.586 39.3173C116.586 39.2795 116.591 39.2389 116.6 39.1954C116.608 39.1489 116.617 39.1083 116.626 39.0735L116.957 37.8893C116.965 37.8544 116.97 37.824 116.97 37.7978C116.97 37.7224 116.936 37.6846 116.869 37.6846C116.809 37.6846 116.742 37.718 116.669 37.7848C116.597 37.8515 116.523 37.9459 116.447 38.0678C116.375 38.1868 116.305 38.3319 116.238 38.5031C116.171 38.6715 116.112 38.8572 116.06 39.0604L115.92 39.6177H115.293L116.007 36.7617H115.655L115.72 36.5048L116.752 36.3089L116.269 37.985L116.321 38.0025C116.376 37.9038 116.431 37.8109 116.486 37.7238C116.541 37.6338 116.601 37.5569 116.665 37.4931C116.732 37.4292 116.804 37.3784 116.883 37.3407C116.964 37.303 117.055 37.2841 117.157 37.2841C117.314 37.2841 117.427 37.3262 117.496 37.4104C117.566 37.4916 117.601 37.6019 117.601 37.7412C117.601 37.7935 117.595 37.8486 117.583 37.9067C117.575 37.9647 117.562 38.0257 117.544 38.0895L117.205 39.2868L117.283 39.3216L117.675 38.8253L117.832 38.9167L117.588 39.2868C117.495 39.4261 117.401 39.5248 117.305 39.5828C117.209 39.6409 117.106 39.6699 116.996 39.6699ZM120.381 39.6699C120.305 39.6699 120.242 39.6598 120.189 39.6394C120.14 39.6191 120.099 39.593 120.067 39.5611C120.036 39.5262 120.012 39.4885 119.998 39.4479C119.986 39.4072 119.98 39.3652 119.98 39.3216C119.98 39.281 119.985 39.2375 119.993 39.191C120.002 39.1417 120.011 39.101 120.02 39.0691L120.381 37.6106H120.015L120.085 37.3363H120.237C120.29 37.3363 120.334 37.332 120.372 37.3233C120.413 37.3146 120.448 37.3015 120.477 37.2841C120.509 37.2667 120.538 37.2449 120.564 37.2188C120.59 37.1898 120.617 37.1549 120.647 37.1143L120.916 36.7138H121.234L121.078 37.3363H121.569L121.5 37.6106H121.012L120.599 39.2563L120.686 39.3042L121.186 38.8297L121.33 38.9429L120.964 39.339C120.9 39.4087 120.842 39.4653 120.79 39.5088C120.738 39.5524 120.689 39.5857 120.642 39.609C120.599 39.6322 120.555 39.6482 120.512 39.6569C120.468 39.6656 120.424 39.6699 120.381 39.6699ZM122.448 37.7412H122.095L122.161 37.48L123.101 37.2841L122.922 38.0025L122.975 38.0199C123.073 37.7703 123.175 37.586 123.279 37.467C123.387 37.345 123.523 37.2841 123.689 37.2841C123.819 37.2841 123.918 37.3175 123.985 37.3842C124.054 37.451 124.089 37.5395 124.089 37.6498C124.089 37.702 124.081 37.7514 124.063 37.7978C124.049 37.8443 124.025 37.8864 123.993 37.9241C123.962 37.9618 123.922 37.9923 123.876 38.0155C123.832 38.0358 123.783 38.046 123.728 38.046C123.647 38.046 123.578 38.0242 123.523 37.9807C123.468 37.9342 123.441 37.8733 123.441 37.7978C123.441 37.7543 123.449 37.7093 123.467 37.6629C123.487 37.6164 123.512 37.5787 123.541 37.5497L123.51 37.5192C123.455 37.5337 123.39 37.5932 123.314 37.6977C123.242 37.8022 123.163 37.9415 123.079 38.1157C123.004 38.2695 122.936 38.4364 122.875 38.6163C122.814 38.7963 122.758 38.9878 122.709 39.191L122.605 39.6177H121.978L122.448 37.7412ZM125.11 39.6699C124.953 39.6699 124.84 39.6293 124.77 39.548C124.7 39.4638 124.665 39.3521 124.665 39.2128C124.665 39.1576 124.67 39.101 124.679 39.043C124.69 38.9849 124.705 38.9254 124.722 38.8645L125.044 37.7412H124.687L124.753 37.48L125.806 37.2841L125.31 39.0691C125.301 39.1039 125.297 39.1344 125.297 39.1605C125.297 39.2331 125.33 39.2694 125.397 39.2694C125.458 39.2694 125.525 39.236 125.597 39.1692C125.67 39.1025 125.742 39.0096 125.815 38.8906C125.89 38.7687 125.961 38.6236 126.028 38.4552C126.095 38.2869 126.154 38.0997 126.207 37.8936L126.346 37.3363H126.973L126.485 39.2868L126.564 39.3216L126.956 38.8253L127.112 38.9167L126.868 39.2868C126.816 39.3681 126.764 39.4348 126.712 39.4871C126.662 39.5364 126.613 39.5756 126.564 39.6046C126.517 39.6307 126.472 39.6482 126.429 39.6569C126.385 39.6656 126.343 39.6699 126.302 39.6699C126.23 39.6699 126.169 39.6598 126.12 39.6394C126.073 39.6191 126.035 39.593 126.006 39.5611C125.98 39.5262 125.961 39.4885 125.95 39.4479C125.938 39.4072 125.932 39.3666 125.932 39.326C125.932 39.2824 125.937 39.2375 125.945 39.191C125.954 39.1417 125.963 39.101 125.972 39.0691L125.998 38.969L125.945 38.9516C125.89 39.0531 125.835 39.1475 125.78 39.2346C125.725 39.3216 125.664 39.3971 125.597 39.4609C125.533 39.5248 125.461 39.5756 125.379 39.6133C125.301 39.6511 125.211 39.6699 125.11 39.6699ZM128.089 39.6699C127.88 39.6699 127.734 39.6394 127.65 39.5785C127.565 39.5175 127.523 39.4348 127.523 39.3303C127.523 39.2491 127.551 39.1751 127.606 39.1083C127.658 39.0386 127.737 39.0038 127.841 39.0038C127.917 39.0038 127.978 39.027 128.024 39.0735C128.073 39.1199 128.098 39.1794 128.098 39.252C128.098 39.2955 128.089 39.3419 128.072 39.3913C128.054 39.4377 128.03 39.474 127.998 39.5001L128.037 39.548C128.176 39.5219 128.292 39.4711 128.385 39.3956C128.478 39.3202 128.525 39.2229 128.525 39.1039C128.525 39.0459 128.512 38.9936 128.486 38.9472C128.462 38.8979 128.432 38.8514 128.394 38.8079C128.359 38.7644 128.319 38.7208 128.272 38.6773C128.229 38.6337 128.187 38.5888 128.146 38.5423C128.091 38.4785 128.04 38.4103 127.994 38.3377C127.947 38.2651 127.924 38.1766 127.924 38.0721C127.924 37.9386 127.951 37.8225 128.007 37.7238C128.065 37.6251 128.14 37.5439 128.233 37.48C128.326 37.4133 128.432 37.3639 128.551 37.332C128.673 37.3001 128.798 37.2841 128.925 37.2841C129.128 37.2841 129.272 37.3146 129.356 37.3755C129.44 37.4365 129.482 37.5192 129.482 37.6237C129.482 37.705 129.455 37.7804 129.4 37.8501C129.348 37.9168 129.269 37.9502 129.165 37.9502C129.089 37.9502 129.027 37.927 128.977 37.8806C128.931 37.8341 128.908 37.7746 128.908 37.702C128.908 37.6585 128.917 37.6135 128.934 37.5671C128.951 37.5177 128.976 37.48 129.008 37.4539L128.969 37.406C128.838 37.435 128.734 37.4902 128.655 37.5714C128.577 37.6498 128.538 37.7427 128.538 37.8501C128.538 37.9081 128.549 37.9618 128.573 38.0112C128.599 38.0576 128.631 38.1026 128.668 38.1461C128.706 38.1897 128.748 38.2332 128.795 38.2767C128.841 38.3203 128.886 38.3667 128.93 38.4161C128.979 38.4712 129.025 38.5365 129.069 38.612C129.115 38.6845 129.139 38.776 129.139 38.8863C129.139 39.0198 129.108 39.1359 129.047 39.2346C128.989 39.3303 128.911 39.4116 128.812 39.4784C128.713 39.5422 128.6 39.5901 128.472 39.622C128.348 39.654 128.22 39.6699 128.089 39.6699ZM130.524 39.6699C130.448 39.6699 130.384 39.6598 130.332 39.6394C130.283 39.6191 130.242 39.593 130.21 39.5611C130.178 39.5262 130.155 39.4885 130.14 39.4479C130.129 39.4072 130.123 39.3652 130.123 39.3216C130.123 39.281 130.127 39.2375 130.136 39.191C130.145 39.1417 130.153 39.101 130.162 39.0691L130.524 37.6106H130.158L130.227 37.3363H130.38C130.432 37.3363 130.477 37.332 130.515 37.3233C130.555 37.3146 130.59 37.3015 130.619 37.2841C130.651 37.2667 130.68 37.2449 130.706 37.2188C130.732 37.1898 130.76 37.1549 130.789 37.1143L131.059 36.7138H131.377L131.22 37.3363H131.712L131.642 37.6106H131.155L130.741 39.2563L130.828 39.3042L131.329 38.8297L131.473 38.9429L131.107 39.339C131.043 39.4087 130.985 39.4653 130.933 39.5088C130.881 39.5524 130.831 39.5857 130.785 39.609C130.741 39.6322 130.698 39.6482 130.654 39.6569C130.611 39.6656 130.567 39.6699 130.524 39.6699ZM132.437 39.6699C132.327 39.6699 132.24 39.6394 132.176 39.5785C132.115 39.5146 132.084 39.4406 132.084 39.3565C132.084 39.3158 132.089 39.2781 132.098 39.2433C132.121 39.1446 132.17 39.0662 132.246 39.0082C132.321 38.9472 132.414 38.9167 132.524 38.9167C132.634 38.9167 132.72 38.9487 132.781 39.0125C132.845 39.0735 132.877 39.146 132.877 39.2302C132.877 39.2708 132.872 39.3086 132.864 39.3434C132.841 39.4421 132.791 39.5219 132.716 39.5828C132.64 39.6409 132.547 39.6699 132.437 39.6699ZM134.119 39.6699C134.009 39.6699 133.922 39.6394 133.858 39.5785C133.797 39.5146 133.767 39.4406 133.767 39.3565C133.767 39.3158 133.771 39.2781 133.78 39.2433C133.803 39.1446 133.852 39.0662 133.928 39.0082C134.003 38.9472 134.096 38.9167 134.206 38.9167C134.317 38.9167 134.402 38.9487 134.463 39.0125C134.527 39.0735 134.559 39.146 134.559 39.2302C134.559 39.2708 134.555 39.3086 134.546 39.3434C134.523 39.4421 134.473 39.5219 134.398 39.5828C134.322 39.6409 134.23 39.6699 134.119 39.6699Z" fill="#1C3A6A"/>
<path d="M79.4455 27.4397V27.9125H78.2314V31.8936H77.6499V27.9125H76.4294V27.4397H79.4455ZM83.2094 31.8936L82.1487 30.0724H81.4458V31.8936H80.8643V27.4397H82.302C82.6386 27.4397 82.9219 27.4972 83.1519 27.6122C83.3862 27.7272 83.5609 27.8827 83.6759 28.0787C83.7909 28.2746 83.8484 28.4983 83.8484 28.7496C83.8484 29.0563 83.759 29.3269 83.58 29.5612C83.4054 29.7955 83.1413 29.951 82.7877 30.0276L83.9059 31.8936H83.2094ZM81.4458 29.6059H82.302C82.6173 29.6059 82.8537 29.5292 83.0113 29.3759C83.1689 29.2182 83.2478 29.0095 83.2478 28.7496C83.2478 28.4855 83.1689 28.281 83.0113 28.1362C82.858 27.9913 82.6215 27.9189 82.302 27.9189H81.4458V29.6059ZM88.0876 30.9031H86.145L85.7872 31.8936H85.1737L86.784 27.4652H87.455L89.0589 31.8936H88.4455L88.0876 30.9031ZM87.9215 30.4302L87.1163 28.1809L86.3112 30.4302H87.9215ZM91.8503 27.4397C92.3359 27.4397 92.7555 27.5312 93.1091 27.7144C93.467 27.8934 93.7396 28.1511 93.9271 28.4876C94.1188 28.8242 94.2146 29.2204 94.2146 29.6762C94.2146 30.132 94.1188 30.5282 93.9271 30.8647C93.7396 31.197 93.467 31.4526 93.1091 31.6316C92.7555 31.8062 92.3359 31.8936 91.8503 31.8936H90.4636V27.4397H91.8503ZM91.8503 31.4143C92.4254 31.4143 92.8642 31.2631 93.1666 30.9606C93.4691 30.6539 93.6203 30.2257 93.6203 29.6762C93.6203 29.1224 93.467 28.69 93.1603 28.379C92.8578 28.068 92.4211 27.9125 91.8503 27.9125H91.0451V31.4143H91.8503ZM96.266 27.4397V31.8936H95.6845V27.4397H96.266ZM101.462 31.8936H100.88L98.5415 28.347V31.8936H97.96V27.4333H98.5415L100.88 30.9734V27.4333H101.462V31.8936ZM106.53 28.7305C106.406 28.4706 106.227 28.2704 105.993 28.1298C105.759 27.9849 105.486 27.9125 105.175 27.9125C104.864 27.9125 104.583 27.9849 104.332 28.1298C104.085 28.2704 103.889 28.4749 103.744 28.7432C103.603 29.0074 103.533 29.3141 103.533 29.6634C103.533 30.0127 103.603 30.3195 103.744 30.5836C103.889 30.8477 104.085 31.0522 104.332 31.197C104.583 31.3376 104.864 31.4079 105.175 31.4079C105.61 31.4079 105.968 31.278 106.249 31.0181C106.53 30.7582 106.694 30.4068 106.741 29.9637H104.964V29.4909H107.361V29.9382C107.327 30.3045 107.212 30.6411 107.016 30.9478C106.82 31.2503 106.562 31.491 106.242 31.6699C105.923 31.8446 105.567 31.9319 105.175 31.9319C104.762 31.9319 104.385 31.836 104.044 31.6443C103.703 31.4484 103.433 31.1779 103.233 30.8328C103.037 30.4877 102.939 30.0979 102.939 29.6634C102.939 29.2289 103.037 28.8391 103.233 28.494C103.433 28.1447 103.703 27.8742 104.044 27.6825C104.385 27.4865 104.762 27.3885 105.175 27.3885C105.648 27.3885 106.066 27.5057 106.428 27.74C106.794 27.9743 107.06 28.3044 107.226 28.7305H106.53ZM111.022 29.6634C111.022 29.2289 111.12 28.8391 111.316 28.494C111.512 28.1447 111.778 27.8721 112.114 27.6761C112.455 27.4801 112.832 27.3821 113.245 27.3821C113.731 27.3821 114.155 27.4993 114.517 27.7336C114.879 27.9679 115.143 28.3002 115.309 28.7305H114.613C114.489 28.4621 114.31 28.2555 114.076 28.1106C113.846 27.9658 113.569 27.8934 113.245 27.8934C112.934 27.8934 112.655 27.9658 112.408 28.1106C112.161 28.2555 111.967 28.4621 111.827 28.7305C111.686 28.9946 111.616 29.3056 111.616 29.6634C111.616 30.017 111.686 30.328 111.827 30.5964C111.967 30.8605 112.161 31.065 112.408 31.2098C112.655 31.3547 112.934 31.4271 113.245 31.4271C113.569 31.4271 113.846 31.3568 114.076 31.2162C114.31 31.0714 114.489 30.8647 114.613 30.5964H115.309C115.143 31.0224 114.879 31.3525 114.517 31.5868C114.155 31.8169 113.731 31.9319 113.245 31.9319C112.832 31.9319 112.455 31.836 112.114 31.6443C111.778 31.4484 111.512 31.1779 111.316 30.8328C111.12 30.4877 111.022 30.0979 111.022 29.6634ZM118.897 31.9383C118.484 31.9383 118.107 31.8424 117.766 31.6507C117.425 31.4548 117.155 31.1843 116.955 30.8392C116.759 30.4899 116.661 30.0979 116.661 29.6634C116.661 29.2289 116.759 28.8391 116.955 28.494C117.155 28.1447 117.425 27.8742 117.766 27.6825C118.107 27.4865 118.484 27.3885 118.897 27.3885C119.315 27.3885 119.694 27.4865 120.035 27.6825C120.375 27.8742 120.644 28.1426 120.84 28.4876C121.036 28.8327 121.134 29.2246 121.134 29.6634C121.134 30.1022 121.036 30.4941 120.84 30.8392C120.644 31.1843 120.375 31.4548 120.035 31.6507C119.694 31.8424 119.315 31.9383 118.897 31.9383ZM118.897 31.4335C119.208 31.4335 119.487 31.361 119.734 31.2162C119.986 31.0714 120.182 30.8647 120.322 30.5964C120.467 30.328 120.539 30.017 120.539 29.6634C120.539 29.3056 120.467 28.9946 120.322 28.7305C120.182 28.4621 119.988 28.2555 119.741 28.1106C119.494 27.9658 119.212 27.8934 118.897 27.8934C118.582 27.8934 118.301 27.9658 118.054 28.1106C117.807 28.2555 117.611 28.4621 117.466 28.7305C117.325 28.9946 117.255 29.3056 117.255 29.6634C117.255 30.017 117.325 30.328 117.466 30.5964C117.611 30.8647 117.807 31.0714 118.054 31.2162C118.305 31.361 118.586 31.4335 118.897 31.4335ZM127.122 27.4716V31.8936H126.541V28.5963L125.071 31.8936H124.662L123.186 28.5899V31.8936H122.604V27.4716H123.231L124.866 31.1267L126.502 27.4716H127.122ZM131.789 28.7432C131.789 29.1139 131.661 29.4227 131.406 29.6698C131.154 29.9126 130.769 30.034 130.249 30.034H129.393V31.8936H128.811V27.4397H130.249C130.752 27.4397 131.133 27.5611 131.393 27.8039C131.657 28.0467 131.789 28.3598 131.789 28.7432ZM130.249 29.5548C130.573 29.5548 130.811 29.4845 130.965 29.3439C131.118 29.2033 131.195 29.0031 131.195 28.7432C131.195 28.1937 130.879 27.9189 130.249 27.9189H129.393V29.5548H130.249ZM135.847 30.9031H133.905L133.547 31.8936H132.933L134.544 27.4652H135.215L136.819 31.8936H136.205L135.847 30.9031ZM135.681 30.4302L134.876 28.1809L134.071 30.4302H135.681ZM141.725 31.8936H141.144L138.805 28.347V31.8936H138.223V27.4333H138.805L141.144 30.9734V27.4333H141.725V31.8936ZM146.538 27.4397L145.087 30.213V31.8936H144.506V30.213L143.049 27.4397H143.694L144.793 29.6954L145.892 27.4397H146.538Z" fill="#1C3A6A"/>
</svg>
