<svg width="401" height="42" viewBox="0 0 401 42" fill="none" xmlns="http://www.w3.org/2000/svg">
<path d="M4.62656 19.1869L0.858887 22.9545L16.7369 38.0252L37.4591 7.88384L35.3062 6L16.1987 26.7222L4.62656 19.1869Z" fill="#1C3A6A"/>
<path d="M28.8473 23.7619L25.0796 29.4134L34.2297 38.2943L54.6828 8.42208L52.5298 6.26912L33.9606 26.9913L28.8473 23.7619Z" fill="#1C3A6A"/>
<path d="M203.749 6.23486H179.412V38.0596H203.749V33.5132H185.296V23.8855H201.074V19.6066H185.296V10.7812H203.749V6.23486Z" fill="#1C3A6A"/>
<path d="M151.332 10.7812V6.23486H178.076V10.7812H167.646V38.0596H161.762V10.7812H151.332Z" fill="#1C3A6A"/>
<path d="M150.261 6.23486H144.378V38.0596H150.261V6.23486Z" fill="#1C3A6A"/>
<path d="M119.774 6.23486H113.891V38.0596H119.774V23.8855H134.751V38.0596H140.634V6.23486H134.751V19.874H119.774V6.23486Z" fill="#1C3A6A"/>
<path d="M71.1013 6.23486H64.6829L72.171 38.0596H76.1825L86.3451 15.5951L97.3099 38.0596H100.519L108.275 6.23486H101.856L97.3099 23.8855L88.4845 6.23486H83.9381L75.6477 24.153L71.1013 6.23486Z" fill="#1C3A6A"/>
<path d="M229.16 6.86824V8.07689H226.057V18.2524H224.57V8.07689H221.451V6.86824H229.16ZM238.781 18.2524L236.069 13.5975H234.273V18.2524H232.786V6.86824H236.461C237.321 6.86824 238.046 7.01524 238.634 7.30923C239.232 7.60323 239.679 8.00067 239.973 8.50155C240.267 9.00244 240.414 9.5741 240.414 10.2165C240.414 11.0005 240.185 11.692 239.728 12.2908C239.281 12.8897 238.606 13.2872 237.703 13.4832L240.561 18.2524H238.781ZM234.273 12.4052H236.461C237.267 12.4052 237.871 12.2092 238.274 11.8172C238.677 11.4143 238.879 10.8807 238.879 10.2165C238.879 9.54143 238.677 9.01877 238.274 8.64855C237.882 8.27833 237.278 8.09322 236.461 8.09322H234.273V12.4052ZM251.249 15.7208H246.284L245.369 18.2524H243.801L247.917 6.93357H249.632L253.732 18.2524H252.164L251.249 15.7208ZM250.825 14.5122L248.767 8.76288L246.709 14.5122H250.825ZM260.867 6.86824C262.108 6.86824 263.181 7.10235 264.084 7.57056C264.999 8.02789 265.696 8.68666 266.175 9.54687C266.665 10.4071 266.91 11.4197 266.91 12.5848C266.91 13.7499 266.665 14.7626 266.175 15.6228C265.696 16.4721 264.999 17.1255 264.084 17.5828C263.181 18.0292 262.108 18.2524 260.867 18.2524H257.322V6.86824H260.867ZM260.867 17.0275C262.337 17.0275 263.458 16.6409 264.231 15.8678C265.004 15.0838 265.391 13.9895 265.391 12.5848C265.391 11.1693 264.999 10.0641 264.215 9.26921C263.442 8.47433 262.326 8.07689 260.867 8.07689H258.809V17.0275H260.867ZM272.153 6.86824V18.2524H270.667V6.86824H272.153ZM285.434 18.2524H283.947L277.97 9.18755V18.2524H276.483V6.85191H277.97L283.947 15.9005V6.85191H285.434V18.2524ZM298.388 10.1675C298.072 9.50332 297.615 8.99155 297.016 8.63222C296.417 8.262 295.72 8.07689 294.925 8.07689C294.13 8.07689 293.412 8.262 292.769 8.63222C292.138 8.99155 291.637 9.51421 291.267 10.2002C290.907 10.8753 290.728 11.6593 290.728 12.5522C290.728 13.4451 290.907 14.229 291.267 14.9041C291.637 15.5792 292.138 16.1019 292.769 16.4721C293.412 16.8315 294.13 17.0111 294.925 17.0111C296.036 17.0111 296.951 16.679 297.669 16.0148C298.388 15.3506 298.807 14.4523 298.927 13.3198H294.386V12.1112H300.511V13.2545C300.424 14.1909 300.13 15.0511 299.629 15.8351C299.128 16.6082 298.47 17.2235 297.653 17.6808C296.836 18.1272 295.927 18.3504 294.925 18.3504C293.869 18.3504 292.905 18.1054 292.034 17.6154C291.163 17.1146 290.472 16.4231 289.96 15.5411C289.459 14.6591 289.209 13.6628 289.209 12.5522C289.209 11.4415 289.459 10.4452 289.96 9.56321C290.472 8.67033 291.163 7.97889 292.034 7.4889C292.905 6.98801 293.869 6.73757 294.925 6.73757C296.134 6.73757 297.201 7.03701 298.127 7.6359C299.063 8.23478 299.744 9.07866 300.168 10.1675H298.388ZM309.869 12.5522C309.869 11.4415 310.119 10.4452 310.62 9.56321C311.121 8.67033 311.802 7.97345 312.662 7.47257C313.533 6.97168 314.497 6.72124 315.553 6.72124C316.794 6.72124 317.878 7.02068 318.803 7.61956C319.729 8.21845 320.404 9.06777 320.828 10.1675H319.048C318.732 9.48154 318.275 8.95344 317.676 8.58322C317.088 8.213 316.38 8.02789 315.553 8.02789C314.758 8.02789 314.045 8.213 313.413 8.58322C312.782 8.95344 312.286 9.48154 311.927 10.1675C311.568 10.8426 311.388 11.6375 311.388 12.5522C311.388 13.4559 311.568 14.2508 311.927 14.9368C312.286 15.6119 312.782 16.1346 313.413 16.5048C314.045 16.875 314.758 17.0601 315.553 17.0601C316.38 17.0601 317.088 16.8805 317.676 16.5211C318.275 16.1509 318.732 15.6228 319.048 14.9368H320.828C320.404 16.0257 319.729 16.8696 318.803 17.4685C317.878 18.0564 316.794 18.3504 315.553 18.3504C314.497 18.3504 313.533 18.1054 312.662 17.6154C311.802 17.1146 311.121 16.4231 310.62 15.5411C310.119 14.6591 309.869 13.6628 309.869 12.5522ZM329.999 18.3668C328.943 18.3668 327.979 18.1218 327.108 17.6318C326.237 17.1309 325.545 16.4395 325.034 15.5575C324.533 14.6646 324.282 13.6628 324.282 12.5522C324.282 11.4415 324.533 10.4452 325.034 9.56321C325.545 8.67033 326.237 7.97889 327.108 7.4889C327.979 6.98801 328.943 6.73757 329.999 6.73757C331.066 6.73757 332.035 6.98801 332.906 7.4889C333.777 7.97889 334.463 8.66488 334.964 9.54687C335.465 10.4289 335.715 11.4306 335.715 12.5522C335.715 13.6737 335.465 14.6755 334.964 15.5575C334.463 16.4395 333.777 17.1309 332.906 17.6318C332.035 18.1218 331.066 18.3668 329.999 18.3668ZM329.999 17.0765C330.794 17.0765 331.507 16.8913 332.139 16.5211C332.781 16.1509 333.282 15.6228 333.641 14.9368C334.011 14.2508 334.196 13.4559 334.196 12.5522C334.196 11.6375 334.011 10.8426 333.641 10.1675C333.282 9.48154 332.786 8.95344 332.155 8.58322C331.523 8.213 330.805 8.02789 329.999 8.02789C329.193 8.02789 328.474 8.213 327.843 8.58322C327.211 8.95344 326.71 9.48154 326.34 10.1675C325.981 10.8426 325.801 11.6375 325.801 12.5522C325.801 13.4559 325.981 14.2508 326.34 14.9368C326.71 15.6228 327.211 16.1509 327.843 16.5211C328.485 16.8913 329.204 17.0765 329.999 17.0765ZM351.022 6.9499V18.2524H349.535V9.82454L345.779 18.2524H344.734L340.961 9.80821V18.2524H339.474V6.9499H341.075L345.256 16.2925L349.437 6.9499H351.022ZM362.95 10.2002C362.95 11.1475 362.624 11.937 361.97 12.5685C361.328 13.1892 360.343 13.4995 359.014 13.4995H356.825V18.2524H355.339V6.86824H359.014C360.299 6.86824 361.273 7.17857 361.938 7.79923C362.613 8.41989 362.95 9.22021 362.95 10.2002ZM359.014 12.2745C359.842 12.2745 360.451 12.0948 360.843 11.7355C361.235 11.3762 361.431 10.8644 361.431 10.2002C361.431 8.79555 360.626 8.09322 359.014 8.09322H356.825V12.2745H359.014ZM373.324 15.7208H368.358L367.444 18.2524H365.876L369.992 6.93357H371.707L375.806 18.2524H374.238L373.324 15.7208ZM372.899 14.5122L370.841 8.76288L368.783 14.5122H372.899ZM388.347 18.2524H386.861L380.883 9.18755V18.2524H379.397V6.85191H380.883L386.861 15.9005V6.85191H388.347V18.2524ZM400.648 6.86824L396.941 13.9568V18.2524H395.454V13.9568L391.73 6.86824H393.38L396.189 12.6338L398.999 6.86824H400.648Z" fill="#1C3A6A"/>
<path d="M232.526 37.2524L231.319 34.1268H227.546L226.326 37.2524H225.576L229.147 28.1549H229.807L233.289 37.2524H232.526ZM229.871 30.1879C229.846 30.1032 229.807 29.9888 229.757 29.8448C229.706 29.7008 229.655 29.5483 229.604 29.3874C229.553 29.2265 229.502 29.0825 229.452 28.9554C229.409 29.0994 229.363 29.2476 229.312 29.4001C229.27 29.5526 229.223 29.6966 229.172 29.8321C229.13 29.9676 229.087 30.0905 229.045 30.2006L227.8 33.466H231.091L229.871 30.1879ZM236.547 37.2524H235.822V27.5958H236.547V37.2524ZM244.201 32.8561C244.159 32.7121 244.116 32.5724 244.074 32.4369C244.04 32.3013 244.006 32.1743 243.972 32.0557C243.938 31.9286 243.905 31.8058 243.871 31.6872C243.837 31.5686 243.807 31.4585 243.782 31.3568H243.744C243.718 31.4585 243.689 31.5686 243.655 31.6872C243.629 31.8058 243.6 31.9328 243.566 32.0684C243.532 32.1954 243.494 32.3267 243.451 32.4623C243.418 32.5893 243.379 32.7249 243.337 32.8689L241.901 37.2524H241.139L239.233 30.4928H239.983L241.126 34.6731C241.194 34.9272 241.253 35.1602 241.304 35.3719C241.355 35.5752 241.401 35.7658 241.444 35.9437C241.486 36.1131 241.516 36.2698 241.533 36.4138H241.571C241.596 36.3122 241.622 36.2021 241.647 36.0835C241.681 35.9564 241.715 35.8251 241.749 35.6896C241.783 35.5541 241.821 35.4101 241.863 35.2576C241.914 35.0966 241.965 34.9357 242.016 34.7748L243.413 30.4928H244.163L245.497 34.7621C245.565 34.9654 245.624 35.1686 245.675 35.3719C245.734 35.5668 245.785 35.7531 245.827 35.931C245.878 36.1004 245.916 36.2614 245.942 36.4138H245.98C245.997 36.2698 246.022 36.1131 246.056 35.9437C246.098 35.7658 246.145 35.571 246.196 35.3592C246.255 35.1475 246.319 34.9188 246.386 34.6731L247.492 30.4928H248.229L246.386 37.2524H245.586L244.201 32.8561ZM253.303 30.3785C254.065 30.3785 254.633 30.5648 255.006 30.9375C255.378 31.3102 255.565 31.9032 255.565 32.7164V37.2524H255.018L254.891 36.1089H254.853C254.692 36.363 254.506 36.5875 254.294 36.7823C254.091 36.9687 253.841 37.1169 253.544 37.227C253.256 37.3287 252.901 37.3795 252.477 37.3795C252.054 37.3795 251.685 37.3075 251.372 37.1635C251.058 37.011 250.817 36.795 250.647 36.5155C250.478 36.236 250.393 35.8929 250.393 35.4863C250.393 34.8171 250.669 34.3089 251.219 33.9616C251.77 33.6058 252.57 33.4025 253.621 33.3517L254.853 33.3009V32.818C254.853 32.1488 254.718 31.6787 254.447 31.4077C254.184 31.1281 253.79 30.9884 253.265 30.9884C252.918 30.9884 252.583 31.0349 252.261 31.1281C251.948 31.2128 251.63 31.3357 251.308 31.4966L251.079 30.9248C251.393 30.7639 251.74 30.6326 252.121 30.5309C252.503 30.4293 252.896 30.3785 253.303 30.3785ZM253.697 33.8853C252.841 33.9277 252.202 34.0802 251.778 34.3428C251.355 34.5969 251.143 34.9823 251.143 35.499C251.143 35.9141 251.274 36.2317 251.537 36.452C251.8 36.6637 252.155 36.7696 252.604 36.7696C253.324 36.7696 253.875 36.5706 254.256 36.1724C254.646 35.7743 254.845 35.2152 254.853 34.4952V33.8345L253.697 33.8853ZM258.006 30.4928H258.781L260.382 34.6985C260.475 34.9442 260.56 35.1729 260.636 35.3847C260.712 35.5964 260.78 35.7955 260.839 35.9818C260.899 36.1597 260.95 36.3249 260.992 36.4774H261.03C261.089 36.2825 261.17 36.0327 261.271 35.7277C261.373 35.4143 261.492 35.0755 261.627 34.7112L263.203 30.4928H263.978L260.928 38.4595C260.776 38.8492 260.606 39.1838 260.42 39.4633C260.234 39.7428 260.014 39.9546 259.759 40.0986C259.505 40.2511 259.2 40.3273 258.845 40.3273C258.684 40.3273 258.535 40.3146 258.4 40.2892C258.273 40.2722 258.15 40.2468 258.031 40.213V39.6031C258.142 39.6285 258.252 39.6496 258.362 39.6666C258.48 39.692 258.612 39.7047 258.756 39.7047C258.993 39.7047 259.2 39.6539 259.378 39.5522C259.556 39.4591 259.713 39.3108 259.848 39.1075C259.984 38.9127 260.107 38.667 260.217 38.3706L260.662 37.227L258.006 30.4928ZM270.722 35.4609C270.722 35.8675 270.62 36.2148 270.417 36.5028C270.213 36.7908 269.917 37.011 269.527 37.1635C269.138 37.3075 268.663 37.3795 268.104 37.3795C267.638 37.3795 267.223 37.3371 266.859 37.2524C266.495 37.1677 266.185 37.0661 265.931 36.9475V36.2487C266.236 36.4011 266.579 36.5282 266.961 36.6298C267.342 36.723 267.727 36.7696 268.117 36.7696C268.794 36.7696 269.282 36.6595 269.578 36.4393C269.874 36.2105 270.023 35.9014 270.023 35.5117C270.023 35.2576 269.951 35.0501 269.807 34.8891C269.671 34.7197 269.464 34.5715 269.184 34.4444C268.913 34.3089 268.574 34.1733 268.168 34.0378C267.753 33.8938 267.384 33.7498 267.062 33.6058C266.74 33.4533 266.49 33.2627 266.313 33.034C266.135 32.8053 266.046 32.4919 266.046 32.0938C266.046 31.5517 266.266 31.1281 266.706 30.8232C267.147 30.5182 267.736 30.3658 268.473 30.3658C268.879 30.3658 269.256 30.4039 269.603 30.4801C269.959 30.5564 270.281 30.658 270.569 30.7851L270.315 31.3822C270.146 31.306 269.955 31.2382 269.743 31.179C269.531 31.1112 269.315 31.0604 269.095 31.0265C268.875 30.9926 268.655 30.9757 268.434 30.9757C267.901 30.9757 267.486 31.0688 267.189 31.2552C266.893 31.4415 266.745 31.7126 266.745 32.0684C266.745 32.3394 266.812 32.5554 266.948 32.7164C267.092 32.8689 267.299 33.0002 267.57 33.1103C267.85 33.2204 268.185 33.3474 268.574 33.4915C268.972 33.627 269.332 33.771 269.654 33.9235C269.985 34.0759 270.243 34.2708 270.429 34.5079C270.624 34.7451 270.722 35.0628 270.722 35.4609ZM286.357 32.7037C286.357 33.3983 286.268 34.0293 286.09 34.5969C285.921 35.1644 285.666 35.66 285.328 36.0835C284.989 36.4985 284.561 36.8204 284.044 37.0491C283.536 37.2694 282.943 37.3795 282.265 37.3795C281.579 37.3795 280.982 37.2651 280.474 37.0364C279.966 36.8077 279.542 36.4858 279.203 36.0708C278.865 35.6557 278.61 35.1644 278.441 34.5969C278.272 34.0209 278.187 33.3856 278.187 32.691C278.187 31.7677 278.339 30.9587 278.644 30.2641C278.958 29.5695 279.419 29.0274 280.029 28.6377C280.648 28.2396 281.41 28.0406 282.316 28.0406C283.189 28.0406 283.922 28.2311 284.514 28.6123C285.116 28.985 285.573 29.5187 285.887 30.2133C286.2 30.9079 286.357 31.738 286.357 32.7037ZM278.962 32.691C278.962 33.5042 279.081 34.2115 279.318 34.8129C279.555 35.4143 279.919 35.8844 280.41 36.2233C280.902 36.5621 281.524 36.7315 282.278 36.7315C283.041 36.7315 283.663 36.5663 284.146 36.236C284.637 35.8971 284.997 35.427 285.226 34.8256C285.463 34.2242 285.582 33.5169 285.582 32.7037C285.582 31.4415 285.306 30.4589 284.756 29.7559C284.214 29.0528 283.401 28.7013 282.316 28.7013C281.554 28.7013 280.923 28.8665 280.423 29.1968C279.932 29.5272 279.563 29.9931 279.318 30.5945C279.081 31.1959 278.962 31.8947 278.962 32.691ZM292.679 30.3658C293.45 30.3658 294.039 30.5648 294.446 30.9629C294.852 31.3611 295.055 31.9879 295.055 32.8434V37.2524H294.344V32.8816C294.344 32.2293 294.196 31.7507 293.899 31.4458C293.603 31.1408 293.166 30.9884 292.59 30.9884C291.853 30.9884 291.299 31.2044 290.926 31.6364C290.553 32.0684 290.367 32.7121 290.367 33.5677V37.2524H289.655V30.4928H290.227L290.341 31.6618H290.38C290.507 31.4161 290.676 31.1959 290.888 31.0011C291.1 30.8062 291.354 30.6538 291.65 30.5436C291.955 30.4251 292.298 30.3658 292.679 30.3658ZM309.14 37.2524L307.933 34.1268H304.159L302.939 37.2524H302.19L305.76 28.1549H306.421L309.902 37.2524H309.14ZM306.484 30.1879C306.459 30.1032 306.421 29.9888 306.37 29.8448C306.319 29.7008 306.268 29.5483 306.218 29.3874C306.167 29.2265 306.116 29.0825 306.065 28.9554C306.023 29.0994 305.976 29.2476 305.925 29.4001C305.883 29.5526 305.836 29.6966 305.786 29.8321C305.743 29.9676 305.701 30.0905 305.659 30.2006L304.413 33.466H307.704L306.484 30.1879ZM313.16 37.2524H312.436V27.5958H313.16V37.2524ZM320.815 32.8561C320.772 32.7121 320.73 32.5724 320.687 32.4369C320.654 32.3013 320.62 32.1743 320.586 32.0557C320.552 31.9286 320.518 31.8058 320.484 31.6872C320.45 31.5686 320.421 31.4585 320.395 31.3568H320.357C320.332 31.4585 320.302 31.5686 320.268 31.6872C320.243 31.8058 320.213 31.9328 320.179 32.0684C320.145 32.1954 320.107 32.3267 320.065 32.4623C320.031 32.5893 319.993 32.7249 319.951 32.8689L318.515 37.2524H317.752L315.846 30.4928H316.596L317.74 34.6731C317.807 34.9272 317.867 35.1602 317.918 35.3719C317.968 35.5752 318.015 35.7658 318.057 35.9437C318.1 36.1131 318.129 36.2698 318.146 36.4138H318.184C318.21 36.3122 318.235 36.2021 318.261 36.0835C318.295 35.9564 318.328 35.8251 318.362 35.6896C318.396 35.5541 318.434 35.4101 318.477 35.2576C318.527 35.0966 318.578 34.9357 318.629 34.7748L320.027 30.4928H320.776L322.111 34.7621C322.178 34.9654 322.238 35.1686 322.288 35.3719C322.348 35.5668 322.399 35.7531 322.441 35.931C322.492 36.1004 322.53 36.2614 322.555 36.4138H322.593C322.61 36.2698 322.636 36.1131 322.67 35.9437C322.712 35.7658 322.759 35.571 322.809 35.3592C322.869 35.1475 322.932 34.9188 323 34.6731L324.105 30.4928H324.842L323 37.2524H322.2L320.815 32.8561ZM329.917 30.3785C330.679 30.3785 331.246 30.5648 331.619 30.9375C331.992 31.3102 332.178 31.9032 332.178 32.7164V37.2524H331.632L331.505 36.1089H331.467C331.306 36.363 331.119 36.5875 330.908 36.7823C330.704 36.9687 330.454 37.1169 330.158 37.227C329.87 37.3287 329.514 37.3795 329.091 37.3795C328.667 37.3795 328.299 37.3075 327.985 37.1635C327.672 37.011 327.43 36.795 327.261 36.5155C327.092 36.236 327.007 35.8929 327.007 35.4863C327.007 34.8171 327.282 34.3089 327.833 33.9616C328.383 33.6058 329.184 33.4025 330.234 33.3517L331.467 33.3009V32.818C331.467 32.1488 331.331 31.6787 331.06 31.4077C330.797 31.1281 330.404 30.9884 329.878 30.9884C329.531 30.9884 329.197 31.0349 328.875 31.1281C328.561 31.2128 328.244 31.3357 327.922 31.4966L327.693 30.9248C328.006 30.7639 328.354 30.6326 328.735 30.5309C329.116 30.4293 329.51 30.3785 329.917 30.3785ZM330.31 33.8853C329.455 33.9277 328.815 34.0802 328.392 34.3428C327.968 34.5969 327.757 34.9823 327.757 35.499C327.757 35.9141 327.888 36.2317 328.15 36.452C328.413 36.6637 328.769 36.7696 329.218 36.7696C329.938 36.7696 330.488 36.5706 330.869 36.1724C331.259 35.7743 331.458 35.2152 331.467 34.4952V33.8345L330.31 33.8853ZM334.619 30.4928H335.395L336.995 34.6985C337.089 34.9442 337.173 35.1729 337.25 35.3847C337.326 35.5964 337.394 35.7955 337.453 35.9818C337.512 36.1597 337.563 36.3249 337.605 36.4774H337.643C337.703 36.2825 337.783 36.0327 337.885 35.7277C337.987 35.4143 338.105 35.0755 338.241 34.7112L339.816 30.4928H340.591L337.542 38.4595C337.389 38.8492 337.22 39.1838 337.034 39.4633C336.847 39.7428 336.627 39.9546 336.373 40.0986C336.119 40.2511 335.814 40.3273 335.458 40.3273C335.297 40.3273 335.149 40.3146 335.013 40.2892C334.886 40.2722 334.763 40.2468 334.645 40.213V39.6031C334.755 39.6285 334.865 39.6496 334.975 39.6666C335.094 39.692 335.225 39.7047 335.369 39.7047C335.606 39.7047 335.814 39.6539 335.992 39.5522C336.17 39.4591 336.326 39.3108 336.462 39.1075C336.597 38.9127 336.72 38.667 336.83 38.3706L337.275 37.227L334.619 30.4928ZM347.335 35.4609C347.335 35.8675 347.233 36.2148 347.03 36.5028C346.827 36.7908 346.53 37.011 346.141 37.1635C345.751 37.3075 345.277 37.3795 344.718 37.3795C344.252 37.3795 343.837 37.3371 343.472 37.2524C343.108 37.1677 342.799 37.0661 342.545 36.9475V36.2487C342.85 36.4011 343.193 36.5282 343.574 36.6298C343.955 36.723 344.341 36.7696 344.73 36.7696C345.408 36.7696 345.895 36.6595 346.191 36.4393C346.488 36.2105 346.636 35.9014 346.636 35.5117C346.636 35.2576 346.564 35.0501 346.42 34.8891C346.285 34.7197 346.077 34.5715 345.798 34.4444C345.527 34.3089 345.188 34.1733 344.781 34.0378C344.366 33.8938 343.998 33.7498 343.676 33.6058C343.354 33.4533 343.104 33.2627 342.926 33.034C342.748 32.8053 342.659 32.4919 342.659 32.0938C342.659 31.5517 342.879 31.1281 343.32 30.8232C343.76 30.5182 344.349 30.3658 345.086 30.3658C345.493 30.3658 345.87 30.4039 346.217 30.4801C346.573 30.5564 346.895 30.658 347.183 30.7851L346.928 31.3822C346.759 31.306 346.568 31.2382 346.357 31.179C346.145 31.1112 345.929 31.0604 345.709 31.0265C345.488 30.9926 345.268 30.9757 345.048 30.9757C344.514 30.9757 344.099 31.0688 343.803 31.2552C343.506 31.4415 343.358 31.7126 343.358 32.0684C343.358 32.3394 343.426 32.5554 343.561 32.7164C343.705 32.8689 343.913 33.0002 344.184 33.1103C344.463 33.2204 344.798 33.3474 345.188 33.4915C345.586 33.627 345.946 33.771 346.268 33.9235C346.598 34.0759 346.856 34.2708 347.043 34.5079C347.238 34.7451 347.335 35.0628 347.335 35.4609ZM360.963 37.2524L359.756 34.1268H355.982L354.762 37.2524H354.013L357.583 28.1549H358.244L361.725 37.2524H360.963ZM358.307 30.1879C358.282 30.1032 358.244 29.9888 358.193 29.8448C358.142 29.7008 358.091 29.5483 358.04 29.3874C357.99 29.2265 357.939 29.0825 357.888 28.9554C357.846 29.0994 357.799 29.2476 357.748 29.4001C357.706 29.5526 357.659 29.6966 357.608 29.8321C357.566 29.9676 357.524 30.0905 357.481 30.2006L356.236 33.466H359.527L358.307 30.1879ZM364.97 30.6961C364.97 30.8655 364.966 31.0307 364.958 31.1917C364.949 31.3526 364.941 31.5135 364.932 31.6745H364.983C365.102 31.4204 365.267 31.1959 365.478 31.0011C365.69 30.8062 365.944 30.6538 366.241 30.5436C366.546 30.4335 366.889 30.3785 367.27 30.3785C367.787 30.3785 368.223 30.4674 368.579 30.6453C368.935 30.8147 369.201 31.0815 369.379 31.4458C369.566 31.8015 369.659 32.2674 369.659 32.8434V37.2524H368.947V32.8816C368.947 32.2293 368.799 31.7507 368.503 31.4458C368.206 31.1408 367.77 30.9884 367.194 30.9884C366.702 30.9884 366.292 31.0858 365.961 31.2806C365.631 31.467 365.381 31.755 365.212 32.1446C365.051 32.5258 364.97 33.0002 364.97 33.5677V37.2524H364.259V27.5958H364.97V30.6961ZM375.767 30.3658C376.351 30.3658 376.834 30.5013 377.215 30.7724C377.605 31.0349 377.897 31.3992 378.092 31.8651C378.295 32.331 378.397 32.8689 378.397 33.4787V33.9616H373.569C373.569 34.8679 373.776 35.5583 374.191 36.0327C374.615 36.507 375.212 36.7442 375.983 36.7442C376.406 36.7442 376.775 36.7103 377.088 36.6426C377.402 36.5748 377.745 36.4562 378.118 36.2868V36.9475C377.779 37.1 377.444 37.2101 377.114 37.2779C376.783 37.3456 376.398 37.3795 375.957 37.3795C375.288 37.3795 374.717 37.2397 374.242 36.9602C373.776 36.6807 373.421 36.2825 373.175 35.7658C372.938 35.2407 372.819 34.6308 372.819 33.9362C372.819 33.2416 372.933 32.6274 373.162 32.0938C373.391 31.5601 373.725 31.1408 374.166 30.8359C374.606 30.5225 375.14 30.3658 375.767 30.3658ZM375.767 30.9757C375.14 30.9757 374.636 31.1832 374.255 31.5983C373.874 32.0048 373.649 32.5936 373.581 33.3644H377.647C377.647 32.89 377.58 32.475 377.444 32.1192C377.309 31.7634 377.101 31.4839 376.821 31.2806C376.55 31.0773 376.199 30.9757 375.767 30.9757ZM384.01 30.3785C384.772 30.3785 385.34 30.5648 385.713 30.9375C386.085 31.3102 386.272 31.9032 386.272 32.7164V37.2524H385.725L385.598 36.1089H385.56C385.399 36.363 385.213 36.5875 385.001 36.7823C384.798 36.9687 384.548 37.1169 384.251 37.227C383.963 37.3287 383.608 37.3795 383.184 37.3795C382.761 37.3795 382.392 37.3075 382.079 37.1635C381.765 37.011 381.524 36.795 381.354 36.5155C381.185 36.236 381.1 35.8929 381.1 35.4863C381.1 34.8171 381.376 34.3089 381.926 33.9616C382.477 33.6058 383.277 33.4025 384.328 33.3517L385.56 33.3009V32.818C385.56 32.1488 385.425 31.6787 385.154 31.4077C384.891 31.1281 384.497 30.9884 383.972 30.9884C383.625 30.9884 383.29 31.0349 382.968 31.1281C382.655 31.2128 382.337 31.3357 382.015 31.4966L381.786 30.9248C382.1 30.7639 382.447 30.6326 382.828 30.5309C383.21 30.4293 383.603 30.3785 384.01 30.3785ZM384.404 33.8853C383.548 33.9277 382.909 34.0802 382.485 34.3428C382.062 34.5969 381.85 34.9823 381.85 35.499C381.85 35.9141 381.981 36.2317 382.244 36.452C382.506 36.6637 382.862 36.7696 383.311 36.7696C384.031 36.7696 384.582 36.5706 384.963 36.1724C385.353 35.7743 385.552 35.2152 385.56 34.4952V33.8345L384.404 33.8853ZM392.258 37.3795C391.352 37.3795 390.653 37.0915 390.161 36.5155C389.679 35.931 389.437 35.0755 389.437 33.9489C389.437 32.7799 389.691 31.8905 390.2 31.2806C390.716 30.6707 391.424 30.3658 392.321 30.3658C392.703 30.3658 393.033 30.4251 393.313 30.5436C393.592 30.6538 393.829 30.8062 394.024 31.0011C394.227 31.1959 394.384 31.4161 394.494 31.6618H394.545C394.537 31.4585 394.524 31.2382 394.507 31.0011C394.498 30.7554 394.494 30.5352 394.494 30.3404V27.5958H395.218V37.2524H394.634L394.532 36.0708H394.494C394.376 36.308 394.219 36.5282 394.024 36.7315C393.829 36.9263 393.588 37.083 393.3 37.2016C393.012 37.3202 392.665 37.3795 392.258 37.3795ZM392.347 36.7569C393.135 36.7569 393.69 36.5197 394.011 36.0454C394.342 35.571 394.507 34.8849 394.507 33.987V33.8726C394.507 32.9409 394.342 32.2293 394.011 31.738C393.69 31.2382 393.152 30.9884 392.398 30.9884C391.669 30.9884 391.119 31.2467 390.746 31.7634C390.373 32.2717 390.187 33.0044 390.187 33.9616C390.187 34.8764 390.365 35.571 390.721 36.0454C391.076 36.5197 391.618 36.7569 392.347 36.7569Z" fill="#1C3A6A"/>
</svg>
