<svg width="358" height="33" viewBox="0 0 358 33" fill="none" xmlns="http://www.w3.org/2000/svg">
<path d="M4.62656 13.1869L0.858887 16.9545L16.7369 32.0252L37.4591 1.88384L35.3062 0L16.1987 20.7222L4.62656 13.1869Z" fill="#1C3A6A"/>
<path d="M28.8473 17.7619L25.0796 23.4134L34.2297 32.2943L54.6828 2.42208L52.5298 0.26912L33.9606 20.9913L28.8473 17.7619Z" fill="#1C3A6A"/>
<path d="M203.749 0.234863H179.412V32.0596H203.749V27.5132H185.296V17.8855H201.074V13.6066H185.296V4.78125H203.749V0.234863Z" fill="#1C3A6A"/>
<path d="M151.332 4.78125V0.234863H178.076V4.78125H167.646V32.0596H161.762V4.78125H151.332Z" fill="#1C3A6A"/>
<path d="M150.261 0.234863H144.378V32.0596H150.261V0.234863Z" fill="#1C3A6A"/>
<path d="M119.774 0.234863H113.891V32.0596H119.774V17.8855H134.751V32.0596H140.634V0.234863H134.751V13.874H119.774V0.234863Z" fill="#1C3A6A"/>
<path d="M71.1013 0.234863H64.6829L72.171 32.0596H76.1825L86.3451 9.59507L97.3099 32.0596H100.519L108.275 0.234863H101.856L97.3099 17.8855L88.4845 0.234863H83.9381L75.6477 18.153L71.1013 0.234863Z" fill="#1C3A6A"/>
<path d="M248.268 29.1483C248.115 29.1483 247.985 29.1276 247.878 29.0863C247.778 29.0449 247.695 28.9918 247.63 28.9268C247.565 28.8559 247.518 28.7791 247.489 28.6964C247.465 28.6138 247.453 28.5281 247.453 28.4395C247.453 28.3568 247.462 28.2682 247.48 28.1737C247.497 28.0733 247.515 27.9906 247.533 27.9256L248.268 24.9575H247.524L247.666 24.3993H247.976C248.082 24.3993 248.174 24.3904 248.251 24.3727C248.333 24.355 248.404 24.3284 248.463 24.2929C248.528 24.2575 248.587 24.2132 248.64 24.16C248.694 24.101 248.75 24.0301 248.809 23.9474L249.358 23.1323H250.005L249.686 24.3993H250.687L250.545 24.9575H249.553L248.711 28.3066L248.888 28.4041L249.907 27.4383L250.2 27.6687L249.456 28.4749C249.326 28.6167 249.207 28.7319 249.101 28.8205C248.995 28.9091 248.894 28.977 248.8 29.0243C248.711 29.0715 248.623 29.104 248.534 29.1217C248.445 29.1395 248.357 29.1483 248.268 29.1483ZM252.475 25.2233H251.757L251.89 24.6917L253.804 24.2929L253.441 25.7549L253.547 25.7903C253.748 25.2823 253.954 24.9073 254.167 24.6651C254.386 24.417 254.663 24.2929 255 24.2929C255.266 24.2929 255.467 24.3609 255.602 24.4967C255.744 24.6326 255.815 24.8127 255.815 25.0372C255.815 25.1435 255.797 25.2439 255.762 25.3384C255.732 25.433 255.685 25.5186 255.62 25.5954C255.555 25.6722 255.475 25.7342 255.381 25.7815C255.292 25.8228 255.192 25.8435 255.08 25.8435C254.914 25.8435 254.775 25.7992 254.663 25.7106C254.551 25.6161 254.495 25.492 254.495 25.3384C254.495 25.2498 254.513 25.1583 254.548 25.0638C254.589 24.9693 254.64 24.8925 254.699 24.8334L254.637 24.7714C254.524 24.8009 254.392 24.922 254.238 25.1347C254.09 25.3473 253.931 25.6308 253.759 25.9852C253.606 26.2983 253.467 26.6379 253.343 27.0042C253.219 27.3704 253.107 27.7602 253.006 28.1737L252.794 29.042H251.518L252.475 25.2233ZM257.718 29.1483C257.346 29.1483 257.08 29.0243 256.921 28.7762C256.767 28.5281 256.691 28.1885 256.691 27.7573C256.691 27.5092 256.714 27.2522 256.761 26.9864C256.809 26.7147 256.88 26.4519 256.974 26.1979C257.069 25.938 257.184 25.6929 257.32 25.4625C257.456 25.2321 257.609 25.0313 257.78 24.86C257.952 24.6828 258.141 24.544 258.347 24.4436C258.56 24.3432 258.788 24.2929 259.03 24.2929C259.29 24.2929 259.511 24.3638 259.694 24.5056C259.883 24.6414 260.007 24.8777 260.066 25.2144H260.173L260.749 24.3993H261.378L260.385 28.3686L260.545 28.4395L261.342 27.4294L261.661 27.6155L261.165 28.3686C260.982 28.6462 260.799 28.8471 260.616 28.9711C260.438 29.0892 260.255 29.1483 260.066 29.1483C259.919 29.1483 259.795 29.1276 259.694 29.0863C259.6 29.0449 259.523 28.9918 259.464 28.9268C259.411 28.8618 259.372 28.788 259.349 28.7053C259.325 28.6167 259.313 28.5311 259.313 28.4484C259.313 28.3598 259.322 28.2682 259.34 28.1737C259.358 28.0733 259.375 27.9906 259.393 27.9256L259.428 27.7838L259.322 27.7661C259.239 27.9492 259.145 28.1264 259.039 28.2977C258.938 28.4631 258.823 28.6108 258.693 28.7407C258.569 28.8648 258.424 28.9652 258.259 29.042C258.099 29.1129 257.919 29.1483 257.718 29.1483ZM258.277 28.3332C258.418 28.3332 258.563 28.2564 258.711 28.1028C258.864 27.9492 259.003 27.7602 259.127 27.5358C259.257 27.3113 259.369 27.0721 259.464 26.8181C259.564 26.5641 259.638 26.3367 259.685 26.1359L259.747 25.8789C259.812 25.5954 259.821 25.3709 259.774 25.2055C259.727 25.0402 259.6 24.9575 259.393 24.9575C259.186 24.9575 258.979 25.0726 258.773 25.303C258.572 25.5334 258.398 25.9114 258.25 26.4371C258.185 26.6616 258.129 26.9126 258.082 27.1902C258.034 27.4619 258.011 27.6923 258.011 27.8813C258.011 28.0172 258.028 28.1264 258.064 28.2091C258.105 28.2918 258.176 28.3332 258.277 28.3332ZM263.936 29.1483C263.564 29.1483 263.298 29.0243 263.139 28.7762C262.985 28.5281 262.909 28.1885 262.909 27.7573C262.909 27.5092 262.932 27.2522 262.98 26.9864C263.033 26.7147 263.104 26.4519 263.192 26.1979C263.287 25.938 263.402 25.6929 263.538 25.4625C263.674 25.2321 263.827 25.0313 263.998 24.86C264.17 24.6828 264.356 24.544 264.557 24.4436C264.763 24.3432 264.985 24.2929 265.221 24.2929C265.475 24.2929 265.676 24.352 265.824 24.4701C265.971 24.5883 266.072 24.7596 266.125 24.984H266.231L266.603 23.2297H265.886L266.019 22.707L268.118 22.3083L266.603 28.3686L266.763 28.4395L267.56 27.4294L267.879 27.6155L267.383 28.3686C267.2 28.6462 267.017 28.8471 266.834 28.9711C266.656 29.0892 266.473 29.1483 266.284 29.1483C266.143 29.1483 266.022 29.1276 265.921 29.0863C265.827 29.0449 265.75 28.9918 265.691 28.9268C265.632 28.8618 265.59 28.788 265.567 28.7053C265.543 28.6167 265.531 28.5311 265.531 28.4484C265.531 28.3598 265.54 28.2682 265.558 28.1737C265.576 28.0733 265.593 27.9906 265.611 27.9256L265.646 27.7838L265.54 27.7661C265.457 27.9492 265.363 28.1264 265.257 28.2977C265.156 28.4631 265.041 28.6108 264.911 28.7407C264.787 28.8648 264.642 28.9652 264.477 29.042C264.317 29.1129 264.137 29.1483 263.936 29.1483ZM264.495 28.3332C264.636 28.3332 264.781 28.2564 264.929 28.1028C265.082 27.9492 265.221 27.7602 265.345 27.5358C265.475 27.3054 265.587 27.0632 265.682 26.8092C265.782 26.5552 265.856 26.3308 265.903 26.1359L265.965 25.8789C266.03 25.5954 266.039 25.3709 265.992 25.2055C265.945 25.0402 265.818 24.9575 265.611 24.9575C265.404 24.9575 265.198 25.0726 264.991 25.303C264.79 25.5334 264.616 25.9114 264.468 26.4371C264.403 26.6616 264.347 26.9126 264.3 27.1902C264.252 27.4619 264.229 27.6923 264.229 27.8813C264.229 28.0172 264.247 28.1264 264.282 28.2091C264.323 28.2918 264.394 28.3332 264.495 28.3332ZM270.509 29.1483C270.031 29.1483 269.68 29.0125 269.455 28.7407C269.231 28.4631 269.118 28.0792 269.118 27.5889C269.118 27.2404 269.169 26.8742 269.269 26.4903C269.375 26.1004 269.535 25.7431 269.748 25.4182C269.96 25.0933 270.232 24.8246 270.563 24.6119C270.899 24.3993 271.298 24.2929 271.759 24.2929C271.954 24.2929 272.134 24.3107 272.299 24.3461C272.471 24.3815 272.615 24.4406 272.733 24.5233C272.857 24.6001 272.955 24.7005 273.026 24.8246C273.097 24.9427 273.132 25.0874 273.132 25.2587C273.132 25.3946 273.097 25.5452 273.026 25.7106C272.955 25.8701 272.825 26.0236 272.636 26.1713C272.447 26.3131 272.187 26.4401 271.856 26.5523C271.525 26.6586 271.097 26.7265 270.572 26.7561C270.524 26.9628 270.492 27.1489 270.474 27.3143C270.456 27.4797 270.447 27.6244 270.447 27.7484C270.447 28.0024 270.495 28.1826 270.589 28.2889C270.684 28.3952 270.817 28.4484 270.988 28.4484C271.26 28.4484 271.508 28.3391 271.732 28.1205C271.957 27.8961 272.169 27.583 272.37 27.1814L272.716 27.332C272.58 27.6155 272.441 27.8695 272.299 28.094C272.157 28.3184 271.998 28.5104 271.821 28.6699C271.649 28.8234 271.455 28.9416 271.236 29.0243C271.023 29.107 270.781 29.1483 270.509 29.1483ZM270.66 26.3928C270.938 26.3515 271.165 26.2924 271.342 26.2156C271.525 26.1329 271.67 26.0384 271.776 25.9321C271.883 25.8198 271.957 25.6988 271.998 25.5688C272.045 25.4389 272.069 25.303 272.069 25.1612C272.069 25.0372 272.036 24.9397 271.971 24.8689C271.912 24.798 271.821 24.7625 271.697 24.7625C271.573 24.7625 271.463 24.7921 271.369 24.8511C271.28 24.9043 271.198 24.9959 271.121 25.1258C271.044 25.2498 270.967 25.4152 270.89 25.622C270.82 25.8287 270.743 26.0857 270.66 26.3928ZM277.761 24.922H277.451L277.575 24.3993H279.71L279.586 24.922H279.099L279.001 27.8104H279.099L280.853 24.3993H281.792L281.748 27.8104H281.845L283.272 24.922H282.785L282.909 24.3993H284.388L284.264 24.922H283.954L281.642 29.042H280.64L280.658 26.0295H280.57L278.939 29.042H277.885L277.761 24.922ZM286.143 29.1483C285.983 29.1483 285.85 29.1247 285.744 29.0774C285.638 29.0361 285.549 28.9829 285.478 28.9179C285.413 28.8471 285.366 28.7703 285.336 28.6876C285.313 28.599 285.301 28.5104 285.301 28.4218C285.301 28.3509 285.31 28.2682 285.327 28.1737C285.345 28.0733 285.363 27.9906 285.381 27.9256L286.054 25.2233H285.336L285.469 24.6917L287.569 24.2929L286.55 28.3686L286.71 28.4395L287.507 27.4294L287.826 27.6155L287.33 28.3686C287.123 28.6817 286.916 28.8914 286.71 28.9977C286.503 29.0981 286.314 29.1483 286.143 29.1483ZM287.321 22.2551C287.539 22.2551 287.705 22.3112 287.817 22.4235C287.935 22.5357 287.994 22.6686 287.994 22.8222C287.994 22.9049 287.985 22.9816 287.968 23.0525C287.92 23.2415 287.823 23.3892 287.675 23.4955C287.528 23.6019 287.35 23.655 287.144 23.655C286.925 23.655 286.757 23.5989 286.639 23.4867C286.526 23.3744 286.47 23.2415 286.47 23.088C286.47 23.0053 286.479 22.9285 286.497 22.8576C286.544 22.6686 286.642 22.5209 286.789 22.4146C286.937 22.3083 287.114 22.2551 287.321 22.2551ZM290.121 29.1483C289.968 29.1483 289.838 29.1276 289.732 29.0863C289.631 29.0449 289.548 28.9918 289.484 28.9268C289.419 28.8559 289.371 28.7791 289.342 28.6964C289.318 28.6138 289.306 28.5281 289.306 28.4395C289.306 28.3568 289.315 28.2682 289.333 28.1737C289.351 28.0733 289.368 27.9906 289.386 27.9256L290.121 24.9575H289.377L289.519 24.3993H289.829C289.935 24.3993 290.027 24.3904 290.104 24.3727C290.186 24.355 290.257 24.3284 290.316 24.2929C290.381 24.2575 290.44 24.2132 290.494 24.16C290.547 24.101 290.603 24.0301 290.662 23.9474L291.211 23.1323H291.858L291.539 24.3993H292.54L292.399 24.9575H291.406L290.564 28.3066L290.742 28.4041L291.761 27.4383L292.053 27.6687L291.309 28.4749C291.179 28.6167 291.061 28.7319 290.954 28.8205C290.848 28.9091 290.748 28.977 290.653 29.0243C290.564 29.0715 290.476 29.104 290.387 29.1217C290.299 29.1395 290.21 29.1483 290.121 29.1483ZM296.747 29.1483C296.587 29.1483 296.454 29.1247 296.348 29.0774C296.242 29.0361 296.156 28.9829 296.091 28.9179C296.026 28.8471 295.979 28.7703 295.949 28.6876C295.926 28.599 295.914 28.5133 295.914 28.4306C295.914 28.3539 295.923 28.2712 295.94 28.1826C295.958 28.088 295.976 28.0054 295.994 27.9345L296.667 25.5245C296.685 25.4536 296.694 25.3916 296.694 25.3384C296.694 25.1849 296.626 25.1081 296.49 25.1081C296.366 25.1081 296.23 25.176 296.082 25.3119C295.935 25.4477 295.784 25.6397 295.63 25.8878C295.483 26.13 295.341 26.4253 295.205 26.7738C295.069 27.1164 294.948 27.4944 294.842 27.9079L294.558 29.042H293.282L294.736 23.2297H294.018L294.151 22.707L296.251 22.3083L295.267 25.7194L295.373 25.7549C295.486 25.554 295.598 25.365 295.71 25.1878C295.822 25.0047 295.943 24.8482 296.073 24.7182C296.209 24.5883 296.357 24.4849 296.516 24.4081C296.682 24.3313 296.868 24.2929 297.075 24.2929C297.394 24.2929 297.624 24.3786 297.766 24.5499C297.907 24.7153 297.978 24.9397 297.978 25.2233C297.978 25.3296 297.967 25.4418 297.943 25.5599C297.925 25.6781 297.899 25.8021 297.863 25.9321L297.172 28.3686L297.332 28.4395L298.129 27.4294L298.448 27.6155L297.952 28.3686C297.763 28.6521 297.571 28.853 297.376 28.9711C297.181 29.0892 296.971 29.1483 296.747 29.1483ZM303.636 29.1483C303.482 29.1483 303.352 29.1276 303.246 29.0863C303.146 29.0449 303.063 28.9918 302.998 28.9268C302.933 28.8559 302.886 28.7791 302.856 28.6964C302.833 28.6138 302.821 28.5281 302.821 28.4395C302.821 28.3568 302.83 28.2682 302.847 28.1737C302.865 28.0733 302.883 27.9906 302.901 27.9256L303.636 24.9575H302.892L303.033 24.3993H303.344C303.45 24.3993 303.541 24.3904 303.618 24.3727C303.701 24.355 303.772 24.3284 303.831 24.2929C303.896 24.2575 303.955 24.2132 304.008 24.16C304.061 24.101 304.117 24.0301 304.176 23.9474L304.726 23.1323H305.373L305.054 24.3993H306.055L305.913 24.9575H304.921L304.079 28.3066L304.256 28.4041L305.275 27.4383L305.567 27.6687L304.823 28.4749C304.693 28.6167 304.575 28.7319 304.469 28.8205C304.362 28.9091 304.262 28.977 304.168 29.0243C304.079 29.0715 303.99 29.104 303.902 29.1217C303.813 29.1395 303.725 29.1483 303.636 29.1483ZM307.842 25.2233H307.125L307.258 24.6917L309.171 24.2929L308.808 25.7549L308.915 25.7903C309.115 25.2823 309.322 24.9073 309.535 24.6651C309.753 24.417 310.031 24.2929 310.368 24.2929C310.633 24.2929 310.834 24.3609 310.97 24.4967C311.112 24.6326 311.183 24.8127 311.183 25.0372C311.183 25.1435 311.165 25.2439 311.13 25.3384C311.1 25.433 311.053 25.5186 310.988 25.5954C310.923 25.6722 310.843 25.7342 310.749 25.7815C310.66 25.8228 310.56 25.8435 310.447 25.8435C310.282 25.8435 310.143 25.7992 310.031 25.7106C309.919 25.6161 309.863 25.492 309.863 25.3384C309.863 25.2498 309.88 25.1583 309.916 25.0638C309.957 24.9693 310.007 24.8925 310.066 24.8334L310.004 24.7714C309.892 24.8009 309.759 24.922 309.606 25.1347C309.458 25.3473 309.298 25.6308 309.127 25.9852C308.974 26.2983 308.835 26.6379 308.711 27.0042C308.587 27.3704 308.474 27.7602 308.374 28.1737L308.161 29.042H306.886L307.842 25.2233ZM313.259 29.1483C312.94 29.1483 312.71 29.0656 312.568 28.9002C312.426 28.7289 312.355 28.5015 312.355 28.218C312.355 28.1058 312.364 27.9906 312.382 27.8725C312.406 27.7543 312.435 27.6332 312.471 27.5092L313.126 25.2233H312.4L312.533 24.6917L314.677 24.2929L313.667 27.9256C313.649 27.9965 313.64 28.0585 313.64 28.1117C313.64 28.2593 313.708 28.3332 313.844 28.3332C313.968 28.3332 314.104 28.2653 314.251 28.1294C314.399 27.9935 314.547 27.8045 314.694 27.5623C314.848 27.3143 314.993 27.0189 315.129 26.6763C315.264 26.3337 315.386 25.9527 315.492 25.5334L315.775 24.3993H317.051L316.059 28.3686L316.218 28.4395L317.016 27.4294L317.335 27.6155L316.839 28.3686C316.732 28.534 316.626 28.6699 316.52 28.7762C316.419 28.8766 316.319 28.9563 316.218 29.0154C316.124 29.0686 316.032 29.104 315.944 29.1217C315.855 29.1395 315.77 29.1483 315.687 29.1483C315.539 29.1483 315.415 29.1276 315.315 29.0863C315.22 29.0449 315.143 28.9918 315.084 28.9268C315.031 28.8559 314.993 28.7791 314.969 28.6964C314.946 28.6138 314.934 28.5311 314.934 28.4484C314.934 28.3598 314.943 28.2682 314.96 28.1737C314.978 28.0733 314.996 27.9906 315.013 27.9256L315.067 27.7218L314.96 27.6864C314.848 27.8931 314.736 28.0851 314.624 28.2623C314.511 28.4395 314.387 28.5931 314.251 28.723C314.122 28.853 313.974 28.9563 313.808 29.0331C313.649 29.1099 313.466 29.1483 313.259 29.1483ZM319.323 29.1483C318.898 29.1483 318.6 29.0863 318.428 28.9623C318.257 28.8382 318.171 28.6699 318.171 28.4572C318.171 28.2918 318.228 28.1412 318.34 28.0054C318.446 27.8636 318.606 27.7927 318.818 27.7927C318.972 27.7927 319.096 27.84 319.19 27.9345C319.291 28.029 319.341 28.1501 319.341 28.2977C319.341 28.3863 319.323 28.4808 319.288 28.5813C319.252 28.6758 319.202 28.7496 319.137 28.8028L319.217 28.9002C319.5 28.8471 319.737 28.7437 319.926 28.5901C320.115 28.4365 320.209 28.2387 320.209 27.9965C320.209 27.8784 320.183 27.772 320.13 27.6775C320.082 27.5771 320.02 27.4826 319.943 27.394C319.873 27.3054 319.79 27.2168 319.695 27.1282C319.607 27.0396 319.521 26.948 319.438 26.8535C319.326 26.7236 319.223 26.5848 319.128 26.4371C319.034 26.2894 318.987 26.1093 318.987 25.8966C318.987 25.6249 319.043 25.3887 319.155 25.1878C319.273 24.987 319.427 24.8216 319.616 24.6917C319.805 24.5558 320.02 24.4554 320.262 24.3904C320.51 24.3254 320.764 24.2929 321.024 24.2929C321.438 24.2929 321.73 24.355 321.902 24.479C322.073 24.6031 322.158 24.7714 322.158 24.984C322.158 25.1494 322.102 25.303 321.99 25.4448C321.884 25.5806 321.724 25.6486 321.512 25.6486C321.358 25.6486 321.231 25.6013 321.131 25.5068C321.036 25.4123 320.989 25.2912 320.989 25.1435C320.989 25.0549 321.007 24.9634 321.042 24.8689C321.078 24.7684 321.128 24.6917 321.193 24.6385L321.113 24.541C320.847 24.6001 320.635 24.7123 320.475 24.8777C320.316 25.0372 320.236 25.2262 320.236 25.4448C320.236 25.5629 320.259 25.6722 320.307 25.7726C320.36 25.8671 320.425 25.9587 320.502 26.0473C320.578 26.1359 320.664 26.2245 320.759 26.3131C320.853 26.4017 320.945 26.4962 321.033 26.5966C321.134 26.7088 321.228 26.8417 321.317 26.9953C321.411 27.143 321.459 27.329 321.459 27.5535C321.459 27.8252 321.397 28.0615 321.272 28.2623C321.154 28.4572 320.995 28.6226 320.794 28.7585C320.593 28.8884 320.363 28.9859 320.103 29.0509C319.849 29.1158 319.589 29.1483 319.323 29.1483ZM324.277 29.1483C324.123 29.1483 323.993 29.1276 323.887 29.0863C323.787 29.0449 323.704 28.9918 323.639 28.9268C323.574 28.8559 323.527 28.7791 323.497 28.6964C323.474 28.6138 323.462 28.5281 323.462 28.4395C323.462 28.3568 323.471 28.2682 323.488 28.1737C323.506 28.0733 323.524 27.9906 323.542 27.9256L324.277 24.9575H323.533L323.675 24.3993H323.985C324.091 24.3993 324.183 24.3904 324.259 24.3727C324.342 24.355 324.413 24.3284 324.472 24.2929C324.537 24.2575 324.596 24.2132 324.649 24.16C324.702 24.101 324.758 24.0301 324.817 23.9474L325.367 23.1323H326.014L325.695 24.3993H326.696L326.554 24.9575H325.562L324.72 28.3066L324.897 28.4041L325.916 27.4383L326.209 27.6687L325.464 28.4749C325.334 28.6167 325.216 28.7319 325.11 28.8205C325.004 28.9091 324.903 28.977 324.809 29.0243C324.72 29.0715 324.631 29.104 324.543 29.1217C324.454 29.1395 324.366 29.1483 324.277 29.1483ZM328.171 29.1483C327.947 29.1483 327.77 29.0863 327.64 28.9623C327.516 28.8323 327.454 28.6817 327.454 28.5104C327.454 28.4277 327.463 28.3509 327.48 28.28C327.528 28.0792 327.628 27.9197 327.781 27.8016C327.935 27.6775 328.124 27.6155 328.349 27.6155C328.573 27.6155 328.747 27.6805 328.871 27.8104C329.001 27.9345 329.066 28.0821 329.066 28.2534C329.066 28.3361 329.057 28.4129 329.04 28.4838C328.992 28.6846 328.892 28.8471 328.738 28.9711C328.585 29.0892 328.396 29.1483 328.171 29.1483ZM331.595 29.1483C331.37 29.1483 331.193 29.0863 331.063 28.9623C330.939 28.8323 330.877 28.6817 330.877 28.5104C330.877 28.4277 330.886 28.3509 330.904 28.28C330.951 28.0792 331.051 27.9197 331.205 27.8016C331.358 27.6775 331.547 27.6155 331.772 27.6155C331.996 27.6155 332.171 27.6805 332.295 27.8104C332.425 27.9345 332.489 28.0821 332.489 28.2534C332.489 28.3361 332.481 28.4129 332.463 28.4838C332.416 28.6846 332.315 28.8471 332.162 28.9711C332.008 29.0892 331.819 29.1483 331.595 29.1483Z" fill="#1C3A6A"/>
<path d="M220.329 6.18835V7.15068H217.858V15.2524H216.675V7.15068H214.191V6.18835H220.329ZM227.989 15.2524L225.83 11.5462H224.399V15.2524H223.216V6.18835H226.142C226.827 6.18835 227.403 6.30539 227.872 6.53947C228.348 6.77355 228.704 7.08999 228.938 7.4888C229.172 7.8876 229.289 8.34275 229.289 8.85426C229.289 9.47847 229.107 10.029 228.743 10.5058C228.387 10.9827 227.85 11.2991 227.13 11.4551L229.406 15.2524H227.989ZM224.399 10.5969H226.142C226.784 10.5969 227.265 10.4408 227.585 10.1287C227.906 9.80792 228.067 9.38311 228.067 8.85426C228.067 8.31675 227.906 7.9006 227.585 7.60584C227.273 7.31107 226.792 7.16369 226.142 7.16369H224.399V10.5969ZM237.916 13.2368H233.963L233.235 15.2524H231.986L235.263 6.24037H236.629L239.893 15.2524H238.644L237.916 13.2368ZM237.578 12.2744L235.939 7.69687L234.301 12.2744H237.578ZM245.574 6.18835C246.562 6.18835 247.416 6.37475 248.135 6.74754C248.864 7.11167 249.419 7.63618 249.8 8.32108C250.19 9.00598 250.385 9.81225 250.385 10.7399C250.385 11.6676 250.19 12.4738 249.8 13.1587C249.419 13.835 248.864 14.3551 248.135 14.7193C247.416 15.0747 246.562 15.2524 245.574 15.2524H242.752V6.18835H245.574ZM245.574 14.2771C246.744 14.2771 247.637 13.9693 248.252 13.3538C248.868 12.7296 249.176 11.8583 249.176 10.7399C249.176 9.61285 248.864 8.73289 248.239 8.1C247.624 7.46712 246.735 7.15068 245.574 7.15068H243.935V14.2771H245.574ZM254.56 6.18835V15.2524H253.377V6.18835H254.56ZM265.134 15.2524H263.95L259.191 8.03498V15.2524H258.007V6.17535H259.191L263.95 13.3798V6.17535H265.134V15.2524ZM275.448 8.81525C275.197 8.2864 274.832 7.87893 274.356 7.59283C273.879 7.29806 273.324 7.15068 272.691 7.15068C272.058 7.15068 271.486 7.29806 270.974 7.59283C270.472 7.87893 270.073 8.29507 269.778 8.84126C269.492 9.37877 269.349 10.003 269.349 10.7139C269.349 11.4248 269.492 12.049 269.778 12.5865C270.073 13.124 270.472 13.5402 270.974 13.835C271.486 14.1211 272.058 14.2641 272.691 14.2641C273.575 14.2641 274.304 13.9997 274.876 13.4708C275.448 12.942 275.782 12.2267 275.877 11.3251H272.262V10.3628H277.139V11.2731C277.069 12.0187 276.835 12.7036 276.436 13.3278C276.037 13.9433 275.513 14.4332 274.863 14.7973C274.213 15.1527 273.489 15.3305 272.691 15.3305C271.85 15.3305 271.083 15.1354 270.389 14.7453C269.696 14.3465 269.145 13.7959 268.738 13.0937C268.339 12.3915 268.139 11.5982 268.139 10.7139C268.139 9.82959 268.339 9.03632 268.738 8.33408C269.145 7.62318 269.696 7.07265 270.389 6.68252C271.083 6.28372 271.85 6.08432 272.691 6.08432C273.653 6.08432 274.503 6.32273 275.24 6.79956C275.985 7.27639 276.527 7.94829 276.865 8.81525H275.448ZM284.589 10.7139C284.589 9.82959 284.788 9.03632 285.187 8.33408C285.586 7.62318 286.128 7.06832 286.813 6.66952C287.506 6.27071 288.274 6.07131 289.115 6.07131C290.103 6.07131 290.966 6.30973 291.702 6.78656C292.439 7.26339 292.977 7.93962 293.315 8.81525H291.898C291.646 8.26906 291.282 7.84859 290.805 7.55382C290.337 7.25905 289.773 7.11167 289.115 7.11167C288.482 7.11167 287.914 7.25905 287.411 7.55382C286.908 7.84859 286.514 8.26906 286.228 8.81525C285.942 9.35276 285.798 9.98565 285.798 10.7139C285.798 11.4335 285.942 12.0664 286.228 12.6125C286.514 13.1501 286.908 13.5662 287.411 13.861C287.914 14.1557 288.482 14.3031 289.115 14.3031C289.773 14.3031 290.337 14.1601 290.805 13.874C291.282 13.5792 291.646 13.1587 291.898 12.6125H293.315C292.977 13.4795 292.439 14.1514 291.702 14.6282C290.966 15.0964 290.103 15.3305 289.115 15.3305C288.274 15.3305 287.506 15.1354 286.813 14.7453C286.128 14.3465 285.586 13.7959 285.187 13.0937C284.788 12.3915 284.589 11.5982 284.589 10.7139ZM300.617 15.3435C299.776 15.3435 299.008 15.1484 298.315 14.7583C297.621 14.3595 297.071 13.8089 296.663 13.1067C296.264 12.3958 296.065 11.5982 296.065 10.7139C296.065 9.82959 296.264 9.03632 296.663 8.33408C297.071 7.62318 297.621 7.07265 298.315 6.68252C299.008 6.28372 299.776 6.08432 300.617 6.08432C301.466 6.08432 302.238 6.28372 302.931 6.68252C303.625 7.07265 304.171 7.61884 304.57 8.32108C304.969 9.02332 305.168 9.82092 305.168 10.7139C305.168 11.6069 304.969 12.4045 304.57 13.1067C304.171 13.8089 303.625 14.3595 302.931 14.7583C302.238 15.1484 301.466 15.3435 300.617 15.3435ZM300.617 14.3161C301.249 14.3161 301.817 14.1687 302.32 13.874C302.832 13.5792 303.23 13.1587 303.516 12.6125C303.811 12.0664 303.959 11.4335 303.959 10.7139C303.959 9.98565 303.811 9.35276 303.516 8.81525C303.23 8.26906 302.836 7.84859 302.333 7.55382C301.83 7.25905 301.258 7.11167 300.617 7.11167C299.975 7.11167 299.403 7.25905 298.9 7.55382C298.397 7.84859 297.998 8.26906 297.704 8.81525C297.417 9.35276 297.274 9.98565 297.274 10.7139C297.274 11.4335 297.417 12.0664 297.704 12.6125C297.998 13.1587 298.397 13.5792 298.9 13.874C299.411 14.1687 299.984 14.3161 300.617 14.3161ZM317.355 6.25338V15.2524H316.172V8.54216L313.181 15.2524H312.348L309.344 8.52915V15.2524H308.161V6.25338H309.435L312.764 13.6919L316.093 6.25338H317.355ZM326.852 8.84126C326.852 9.59551 326.592 10.2241 326.072 10.7269C325.561 11.2211 324.776 11.4682 323.718 11.4682H321.976V15.2524H320.792V6.18835H323.718C324.741 6.18835 325.517 6.43544 326.046 6.92961C326.584 7.42377 326.852 8.06099 326.852 8.84126ZM323.718 10.4928C324.377 10.4928 324.863 10.3498 325.175 10.0637C325.487 9.77758 325.643 9.3701 325.643 8.84126C325.643 7.72288 325.001 7.16369 323.718 7.16369H321.976V10.4928H323.718ZM335.112 13.2368H331.158L330.43 15.2524H329.182L332.459 6.24037H333.824L337.088 15.2524H335.84L335.112 13.2368ZM334.773 12.2744L333.135 7.69687L331.496 12.2744H334.773ZM347.073 15.2524H345.89L341.13 8.03498V15.2524H339.947V6.17535H341.13L345.89 13.3798V6.17535H347.073V15.2524ZM356.867 6.18835L353.915 11.8323V15.2524H352.732V11.8323L349.767 6.18835H351.08L353.317 10.7789L355.554 6.18835H356.867Z" fill="#1C3A6A"/>
</svg>
